<svg xmlns="http://www.w3.org/2000/svg" width="1024" height="974" viewBox="0 0 1024 974" role="img" aria-label="Bella Studio Criativo">
<defs>
	<linearGradient id="eg-logo-gold" x1="0%" y1="0%" x2="100%" y2="0%">
		<stop offset="0%" stop-color="#ae8625"/>
		<stop offset="35%" stop-color="#f7ef8a"/>
		<stop offset="75%" stop-color="#d2ac47"/>
		<stop offset="100%" stop-color="#edc967"/>
	</linearGradient>
</defs>
<g>
	<path class="logo-serif" d="M 259.00 814.04 C254.75,812.58 252.16,810.74 247.63,805.93 C230.77,788.02 221.98,748.80 222.01,691.59 C222.02,679.44 222.30,668.50 222.62,667.28 C223.18,665.19 223.38,665.15 226.03,666.51 C227.57,667.31 232.45,669.01 236.86,670.28 L 244.88 672.60 L 245.40 700.55 C246.41,755.17 251.09,783.00 261.18,794.46 C267.52,801.67 276.23,802.54 284.34,796.76 C287.89,794.23 293.26,785.96 295.97,778.85 C298.47,772.30 301.57,756.35 302.51,745.25 C303.25,736.45 303.45,736.21 308.89,737.67 C311.26,738.30 311.27,738.39 310.65,747.90 C309.61,763.58 305.46,782.39 300.62,793.33 C299.27,796.37 296.28,801.37 293.96,804.44 C286.01,814.97 272.49,818.68 259.00,814.04 Z M 767.29 813.02 C745.71,802.11 734.00,759.18 734.01,691.00 C734.01,655.32 736.51,631.27 742.68,607.60 C747.37,589.64 751.58,580.87 759.44,572.70 C765.64,566.26 771.61,563.67 780.50,563.58 C793.95,563.43 803.44,571.05 811.56,588.50 C823.38,613.91 829.27,668.19 825.62,718.00 C822.91,754.96 818.56,775.80 809.83,793.73 C802.25,809.30 794.78,815.00 781.00,815.76 C774.15,816.13 772.96,815.89 767.29,813.02 Z M 786.12 803.92 C791.83,799.85 795.76,788.25 798.97,766.00 C805.09,723.54 804.61,642.76 798.01,605.44 C793.80,581.63 789.59,574.00 780.68,574.00 C769.95,574.00 764.73,585.69 760.57,619.00 C755.37,660.71 756.07,733.26 762.08,772.98 C764.19,786.96 769.71,801.28 774.20,804.43 C777.33,806.62 782.65,806.39 786.12,803.92 Z M 681.66 813.25 C681.40,812.84 680.68,808.00 680.06,802.50 C679.43,797.00 678.50,790.25 677.98,787.50 C677.47,784.75 676.60,778.22 676.06,773.00 C675.06,763.47 674.12,755.98 667.53,705.00 C665.58,689.88 662.43,665.35 660.53,650.50 C652.51,587.62 652.12,585.28 648.81,578.69 C646.29,573.67 644.17,574.16 641.00,580.50 L 638.50 585.50 L 638.50 690.00 C638.50,788.61 638.60,794.77 640.32,799.21 C641.55,802.41 643.24,804.60 645.57,806.04 C647.95,807.51 649.00,808.91 649.00,810.58 L 649.00 813.00 L 627.50 813.00 L 606.00 813.00 L 606.00 810.56 C606.00,808.90 606.97,807.54 608.98,806.35 C610.62,805.38 612.76,802.99 613.73,801.04 C615.39,797.72 615.50,790.79 615.50,690.97 C615.50,587.81 615.44,584.30 613.57,580.15 C611.94,576.54 607.95,573.00 605.51,573.00 C605.19,573.00 605.15,581.21 605.42,591.25 C605.69,601.29 605.98,615.33 606.07,622.46 L 606.23 635.43 L 603.55 636.14 C601.82,636.61 600.76,636.45 600.54,635.68 C600.34,635.03 599.46,627.97 598.57,620.00 C594.87,586.87 589.95,576.11 579.00,577.16 L 575.50 577.50 L 575.50 685.50 C575.50,774.36 575.74,794.21 576.87,797.50 C578.36,801.86 582.60,807.00 584.69,807.00 C585.48,807.00 586.00,808.19 586.00,810.00 L 586.00 813.00 L 564.57 813.00 C544.05,813.00 543.11,812.92 542.50,811.01 C541.75,808.65 542.58,807.00 544.51,807.00 C546.51,807.00 550.62,801.16 551.90,796.50 C552.65,793.72 552.99,759.51 552.99,684.62 L 553.00 576.75 L 547.79 577.25 C543.45,577.66 542.12,578.29 539.88,580.97 C534.94,586.89 530.95,604.22 529.37,626.66 L 528.72 635.81 L 525.81 636.24 C524.22,636.47 522.67,636.28 522.38,635.81 C522.09,635.33 522.17,622.36 522.57,606.97 L 523.29 578.99 L 527.52 576.88 C529.85,575.72 533.72,573.02 536.13,570.89 C541.59,566.03 544.26,565.96 550.97,570.48 C563.33,578.80 579.44,578.55 591.45,569.86 C595.48,566.94 602.48,565.91 604.55,567.93 C605.07,568.44 609.10,569.81 613.50,570.96 C623.08,573.47 629.99,573.02 637.64,569.40 C642.65,567.02 643.33,566.97 663.64,567.23 L 684.50 567.50 L 684.81 570.17 C685.05,572.26 684.51,573.13 682.32,574.18 C676.51,576.96 675.29,585.46 677.86,605.20 C679.58,618.37 684.17,656.49 687.96,689.00 C691.09,715.92 691.84,722.24 694.00,739.64 C695.10,748.52 696.00,757.18 696.00,758.89 C696.00,760.60 696.45,762.00 697.00,762.00 C697.55,762.00 698.00,761.44 698.01,760.75 C698.01,760.06 698.69,755.00 699.52,749.50 C700.35,744.00 701.69,734.33 702.48,728.00 C706.43,696.82 708.11,684.03 710.43,667.50 C718.17,612.49 721.00,590.96 721.00,587.17 C721.00,580.74 718.68,576.18 714.54,574.45 C711.61,573.23 711.00,572.46 711.00,569.99 L 711.00 567.00 L 727.50 567.00 L 744.00 567.00 L 743.96 569.75 C743.93,571.71 743.03,573.07 740.80,574.50 C734.26,578.68 732.59,583.31 728.55,608.50 C726.04,624.10 720.33,665.01 717.51,687.50 C716.01,699.49 701.62,803.36 700.43,810.75 L 699.91 814.00 L 691.01 814.00 C686.12,814.00 681.91,813.66 681.66,813.25 Z M 311.75 810.46 C311.36,808.41 311.84,807.62 314.22,806.39 C316.04,805.45 318.01,803.06 319.34,800.18 C321.49,795.52 321.50,795.14 321.64,719.82 L 321.78 644.13 L 326.27 638.30 C330.84,632.36 338.79,619.45 341.82,613.05 C343.43,609.65 343.51,611.08 343.76,647.38 L 344.02 685.27 L 350.98 684.77 C358.64,684.22 361.52,682.80 365.47,677.63 C371.34,669.93 374.99,652.06 374.99,631.00 C374.98,600.31 369.75,582.89 359.01,577.81 C356.53,576.64 354.41,575.62 354.30,575.56 C353.49,575.07 356.51,567.00 357.50,567.00 C358.20,567.00 359.99,569.49 361.48,572.54 C366.31,582.43 373.99,587.68 386.33,589.53 C392.04,590.38 393.01,591.87 396.22,604.73 C399.32,617.17 399.27,643.66 396.13,655.50 C392.28,669.97 384.25,682.92 376.41,687.31 C374.87,688.17 374.93,688.39 377.07,689.54 C379.28,690.72 379.71,692.54 383.58,716.65 C390.14,757.63 390.97,762.57 394.13,779.43 C395.78,788.19 397.79,796.95 398.61,798.91 C400.51,803.48 403.83,807.00 406.22,807.00 C408.83,807.00 412.81,802.42 413.98,798.07 C415.06,794.07 415.60,588.23 414.54,584.00 C414.02,581.91 414.82,580.61 419.42,576.07 L 424.92 570.65 L 429.71 575.08 C432.34,577.51 435.53,580.18 436.79,581.00 C438.99,582.44 439.04,582.76 438.06,589.50 C436.68,598.99 436.65,783.18 438.03,792.00 C439.29,800.04 440.74,803.79 443.07,805.04 C445.58,806.38 445.58,806.38 447.72,802.75 C450.97,797.23 452.00,793.05 454.06,777.00 C455.15,768.47 458.50,742.60 461.50,719.50 C464.50,696.40 467.41,673.90 467.97,669.50 C468.52,665.10 469.65,656.33 470.47,650.00 C471.28,643.67 472.84,631.08 473.92,622.00 C475.01,612.92 476.43,601.14 477.07,595.80 C477.72,590.47 477.94,584.09 477.57,581.64 C476.93,577.32 477.06,577.02 481.17,573.19 L 485.43 569.21 L 489.43 572.63 C491.63,574.52 495.80,577.18 498.71,578.56 C501.62,579.93 504.00,581.69 504.00,582.45 C504.00,583.22 506.25,600.87 509.00,621.68 C514.48,663.12 517.17,683.91 519.52,703.00 C520.36,709.88 521.93,722.25 523.00,730.50 C531.21,793.74 532.64,800.83 538.07,805.41 C539.91,806.95 541.00,808.83 541.00,810.44 L 541.00 813.00 L 520.00 813.00 L 499.00 813.00 L 499.00 810.07 C499.00,807.98 499.60,806.95 501.07,806.48 C502.21,806.12 504.01,804.40 505.07,802.66 C507.97,797.90 507.92,797.00 502.59,752.50 L 500.43 734.50 L 484.72 734.22 L 469.00 733.95 L 468.97 736.22 C468.95,737.48 468.04,745.92 466.95,755.00 C463.11,786.86 462.77,790.99 463.47,796.60 C464.18,802.32 467.41,807.00 470.65,807.00 C471.48,807.00 472.00,808.14 472.00,810.00 L 472.00 813.00 L 424.02 813.00 L 376.04 813.00 L 375.55 810.75 C375.29,809.51 373.47,798.38 371.51,786.00 C369.56,773.62 367.31,759.45 366.51,754.50 C363.90,738.26 361.12,719.71 359.46,707.51 C358.56,700.92 357.61,695.18 357.35,694.76 C357.09,694.34 353.98,694.00 350.44,694.00 L 344.00 694.00 L 344.00 743.34 C344.00,783.38 344.27,793.58 345.44,797.46 C346.94,802.44 350.40,807.00 352.67,807.00 C353.48,807.00 354.00,808.18 354.00,810.00 L 354.00 813.00 L 333.12 813.00 L 312.23 813.00 L 311.75 810.46 Z M 499.00 723.60 C499.00,722.64 495.78,695.29 494.04,681.50 C493.00,673.25 490.66,653.56 488.85,637.75 C487.03,621.94 485.27,609.79 484.94,610.75 C484.60,611.71 483.78,617.67 483.10,624.00 C482.00,634.28 479.41,655.19 473.03,705.50 C471.91,714.30 471.00,722.06 471.00,722.75 C471.00,723.69 474.47,724.00 485.00,724.00 C492.70,724.00 499.00,723.82 499.00,723.60 Z M 502.01 421.25 C502.01,419.29 502.81,418.04 504.82,416.90 C506.36,416.03 508.50,413.55 509.56,411.40 C511.44,407.63 511.51,404.02 511.80,301.50 C512.07,206.69 511.93,194.87 510.49,189.50 C508.69,182.78 507.74,181.26 503.69,178.67 C501.75,177.43 500.97,176.19 501.19,174.69 C501.50,172.51 501.64,172.50 523.50,172.50 L 545.50 172.50 L 545.78 175.00 C545.99,176.90 545.32,177.92 542.98,179.23 C541.10,180.29 539.05,182.82 537.70,185.73 L 535.50 190.50 L 535.23 302.25 L 534.97 414.00 L 543.53 414.00 C549.19,414.00 553.08,413.49 555.00,412.50 C558.46,410.71 562.18,405.99 564.47,400.50 C566.83,394.82 569.99,378.95 570.70,369.25 L 571.30 361.00 L 574.74 361.00 L 578.19 361.00 L 577.46 381.75 C577.06,393.16 576.61,403.85 576.47,405.50 C576.33,407.15 576.17,411.99 576.11,416.25 L 576.00 424.00 L 539.00 424.00 L 502.00 424.00 L 502.01 421.25 Z M 579.01 421.25 C579.01,419.29 579.81,418.04 581.82,416.90 C583.36,416.03 585.50,413.55 586.56,411.40 C588.44,407.61 588.50,404.30 588.50,298.00 C588.50,192.74 588.43,188.35 586.62,184.71 C585.58,182.62 583.44,180.25 581.87,179.43 C579.69,178.30 579.00,177.24 579.00,174.97 L 579.00 172.00 L 601.00 172.00 L 623.00 172.00 L 622.99 174.75 C622.99,176.76 622.06,178.13 619.57,179.83 C617.69,181.11 615.34,184.03 614.33,186.33 C612.60,190.28 612.49,196.52 612.23,302.25 L 611.96 414.00 L 621.44 414.00 C630.54,414.00 631.07,413.88 634.32,411.03 C636.18,409.39 638.93,405.31 640.44,401.96 C643.69,394.71 647.95,374.83 647.98,366.75 L 648.00 361.00 L 651.50 361.00 L 655.00 361.00 L 654.99 368.25 C654.98,379.97 653.45,386.27 646.94,401.30 C643.55,409.11 640.05,417.41 639.15,419.75 L 637.52 424.00 L 608.26 424.00 L 579.00 424.00 L 579.01 421.25 Z M 732.98 421.75 C732.95,418.54 729.68,411.88 726.87,409.30 C725.55,408.09 722.34,406.15 719.74,405.00 C715.31,403.04 715.00,402.66 715.01,399.20 C715.02,395.86 712.83,376.78 709.65,352.50 L 708.47 343.50 L 692.48 343.50 L 676.50 343.50 L 676.25 347.00 C675.84,352.85 673.89,369.36 673.32,371.75 C672.91,373.46 672.07,374.00 669.83,374.00 C668.20,374.00 666.00,374.47 664.93,375.04 C663.35,375.88 663.00,375.74 663.00,374.22 C663.00,372.47 668.01,332.02 669.96,318.04 C670.95,310.91 673.01,294.11 675.48,273.00 C676.35,265.58 677.72,254.10 678.54,247.50 C683.33,208.57 685.00,194.22 684.99,192.00 C684.99,187.52 682.89,181.80 680.42,179.51 C679.04,178.23 678.00,176.14 678.00,174.64 L 678.00 172.00 L 693.98 172.00 C712.42,172.00 710.12,170.28 711.97,185.50 C712.57,190.45 714.18,203.50 715.55,214.50 C716.92,225.50 719.18,243.73 720.59,255.00 C721.99,266.27 724.26,283.83 725.63,294.00 C726.99,304.17 728.77,317.45 729.57,323.50 C740.58,406.65 741.55,411.38 748.94,417.15 C751.22,418.94 751.80,420.05 751.35,421.75 C750.80,423.87 750.25,424.00 741.88,424.00 C733.34,424.00 733.00,423.91 732.98,421.75 Z M 706.61 326.75 C705.83,319.12 704.35,306.45 702.38,290.50 C701.57,283.90 700.70,276.70 700.46,274.50 C698.68,258.70 693.86,220.06 693.43,218.13 C693.14,216.83 692.69,215.97 692.44,216.23 C692.19,216.48 690.86,226.32 689.49,238.09 C688.12,249.87 686.53,263.10 685.95,267.50 C684.88,275.77 683.40,287.95 680.13,315.50 C679.08,324.30 678.43,331.84 678.67,332.25 C678.92,332.66 685.45,333.00 693.19,333.00 L 707.26 333.00 L 706.61 326.75 Z M 421.00 412.36 C421.00,411.88 421.45,409.92 422.00,408.00 C423.35,403.28 423.40,192.77 422.05,188.13 C420.66,183.35 418.29,180.06 415.45,178.98 C413.60,178.28 413.00,177.31 413.00,175.02 L 413.00 172.00 L 455.50 172.00 L 498.00 172.00 L 498.00 189.06 L 498.00 206.13 L 494.75 205.81 C491.64,205.51 491.47,205.28 490.87,200.36 C490.09,193.95 485.48,185.30 481.85,183.42 C479.81,182.37 474.97,182.00 463.05,182.00 L 447.00 182.00 L 447.00 221.50 L 447.00 261.00 L 456.55 261.00 C467.86,261.00 470.95,259.77 473.25,254.32 C475.66,248.62 477.47,238.94 477.94,229.25 C477.98,228.50 479.40,228.00 481.50,228.00 L 485.00 228.00 L 485.00 266.00 L 485.00 304.00 L 481.61 304.00 C478.40,304.00 476.27,301.99 477.46,300.07 C478.30,298.70 475.79,279.53 474.41,276.84 C471.57,271.31 470.72,271.00 458.43,271.00 L 447.00 271.00 L 447.00 342.11 L 447.00 413.22 L 444.25 412.38 C440.70,411.30 431.80,411.30 425.75,412.38 C423.07,412.86 421.00,412.85 421.00,412.36 Z M 329.02 291.96 C328.95,180.16 329.26,184.92 321.75,180.08 C318.87,178.22 318.00,177.01 318.00,174.83 L 318.00 172.00 L 341.36 172.00 C366.56,172.00 372.41,172.67 380.76,176.49 C391.32,181.32 397.51,188.72 401.67,201.46 C404.00,208.58 404.31,211.16 404.37,224.00 C404.44,239.25 402.81,247.57 397.86,257.28 C395.64,261.62 388.93,268.47 384.80,270.60 C381.50,272.31 381.23,273.62 383.99,274.50 C387.94,275.75 396.23,283.28 399.88,288.94 C402.47,292.94 404.66,298.50 407.04,307.10 C410.33,318.97 410.48,320.22 410.49,336.50 C410.50,345.85 410.12,356.14 409.66,359.36 L 408.83 365.23 L 405.66 362.21 C402.72,359.42 396.67,356.43 389.50,354.24 L 386.50 353.33 L 386.82 342.41 C387.22,328.82 384.75,306.55 381.92,298.20 C379.12,289.96 374.33,283.12 369.62,280.68 C367.41,279.54 362.96,278.52 358.92,278.23 L 352.00 277.73 L 352.00 319.90 L 352.00 362.07 L 344.93 369.21 C340.72,373.46 336.23,379.32 333.84,383.68 C331.63,387.70 329.65,391.00 329.45,391.00 C329.25,391.00 329.06,346.43 329.02,291.96 Z M 369.61 265.48 C374.64,261.64 378.58,252.59 380.06,241.44 C381.55,230.28 380.76,207.50 378.61,199.75 C375.24,187.54 368.20,181.60 357.82,182.20 L 352.50 182.50 L 352.24 225.89 L 351.98 269.27 L 358.97 268.77 C364.61,268.37 366.66,267.73 369.61,265.48 Z" />
	<path class="logo-studio" d="M 241.50 660.44 C216.90,655.15 196.68,633.19 189.41,603.87 C184.06,582.25 183.05,563.51 186.12,542.50 C187.24,534.83 192.27,514.58 194.45,508.94 C195.82,505.42 195.78,505.31 190.42,497.52 C184.58,489.02 179.63,477.41 177.41,467.02 C175.21,456.73 175.49,436.83 177.98,426.31 C184.65,398.10 205.74,376.04 232.10,369.70 C242.30,367.25 249.23,366.80 258.05,368.01 C269.34,369.55 277.60,372.77 285.67,378.77 C298.27,388.13 308.04,404.79 302.88,408.11 C300.21,409.83 298.46,408.42 295.00,401.73 C289.99,392.09 281.28,383.55 272.00,379.19 C265.26,376.02 263.44,375.62 254.00,375.22 C241.58,374.70 234.68,375.83 224.66,380.00 C215.42,383.84 205.84,391.95 198.59,402.05 C181.98,425.21 179.76,459.05 193.14,485.27 C197.04,492.93 200.97,497.15 201.02,493.75 C201.05,491.56 212.27,474.33 218.96,466.18 C226.92,456.52 235.99,449.21 246.50,444.02 C256.58,439.03 263.27,437.61 273.46,438.26 C288.77,439.24 298.71,446.52 304.83,461.26 C308.78,470.77 310.23,479.03 310.38,492.75 C310.46,499.98 310.88,504.00 311.57,504.00 C312.95,504.00 330.15,492.78 331.62,490.92 C332.34,490.00 332.94,480.29 333.31,463.50 C334.46,411.47 339.78,390.48 355.41,376.16 C363.02,369.19 369.85,366.51 380.02,366.51 C387.20,366.50 389.32,366.90 393.51,369.05 C399.04,371.89 404.32,378.10 406.06,383.78 C409.87,396.22 407.30,416.93 400.29,430.28 C393.01,444.13 376.07,464.29 360.61,477.50 C347.67,488.56 349.00,486.21 348.96,498.03 C348.86,527.97 344.97,564.63 340.04,582.21 C335.99,596.63 326.83,618.91 324.09,621.00 C323.73,621.28 321.33,624.48 318.76,628.12 C311.61,638.24 300.00,647.93 287.34,654.33 C274.93,660.61 254.77,663.30 241.50,660.44 Z M 259.42 651.90 C277.42,649.69 293.61,638.38 306.93,618.69 C311.91,611.33 319.60,594.54 322.84,583.98 C328.02,567.09 332.93,530.17 332.98,507.72 L 333.00 498.94 L 327.75 502.29 C324.86,504.13 319.52,507.30 315.88,509.33 C309.32,512.99 309.25,513.08 308.58,518.11 C307.43,526.77 303.03,539.10 297.74,548.50 C289.17,563.71 271.01,579.86 263.64,578.81 C262.02,578.57 261.42,577.69 261.18,575.16 C260.77,570.89 262.76,568.66 270.45,564.78 C282.29,558.79 291.67,545.61 297.53,526.71 C299.03,521.88 300.06,517.73 299.83,517.49 C299.59,517.26 296.22,518.17 292.33,519.52 C288.44,520.87 279.16,522.87 271.71,523.97 C260.23,525.66 256.33,525.82 246.32,525.03 C231.49,523.86 219.23,520.69 211.21,515.96 C209.38,514.88 207.53,514.00 207.09,514.00 C206.21,514.00 202.81,526.34 200.35,538.50 C198.04,549.93 198.00,583.56 200.28,594.36 C204.73,615.37 211.34,629.32 221.75,639.59 C228.06,645.82 237.08,650.68 244.72,651.96 C247.35,652.40 249.73,652.82 250.00,652.88 C250.27,652.94 254.52,652.50 259.42,651.90 Z M 282.25 515.11 C286.51,513.94 292.46,512.05 295.46,510.93 C300.41,509.08 301.00,508.54 301.61,505.27 C302.63,499.81 301.29,478.29 299.51,471.58 C296.33,459.60 291.04,451.71 283.50,447.68 C277.69,444.58 264.69,444.65 256.77,447.83 C244.57,452.73 231.23,466.02 220.27,484.21 C213.05,496.18 209.70,503.93 211.03,505.54 C212.90,507.79 226.47,513.95 234.08,516.00 C244.45,518.80 270.66,518.32 282.25,515.11 Z M 364.29 464.25 C371.15,457.24 378.32,449.70 380.21,447.50 C403.08,420.95 408.01,384.34 390.00,374.95 C386.05,372.88 376.17,373.32 371.43,375.76 C367.00,378.04 361.01,384.14 358.58,388.85 C355.50,394.79 352.93,407.03 351.50,422.59 C349.87,440.14 349.47,477.00 350.90,477.00 C351.40,477.00 357.42,471.26 364.29,464.25 Z M 380.48 577.67 C376.49,575.85 371.54,570.10 369.86,565.34 C369.04,563.03 368.54,557.72 368.61,552.00 C368.74,540.60 371.01,532.86 380.09,512.89 C383.43,505.53 387.43,496.58 388.97,493.00 C390.51,489.42 393.62,482.52 395.88,477.65 C398.15,472.78 400.00,468.41 400.00,467.94 C400.00,467.47 396.41,466.95 392.03,466.79 L 384.06 466.50 L 385.30 464.00 C386.38,461.83 387.47,461.39 393.52,460.70 C405.39,459.34 404.42,460.26 412.63,442.54 C416.70,433.76 420.42,426.18 420.91,425.69 C422.18,424.42 435.77,421.98 437.63,422.69 C439.92,423.57 439.01,426.68 431.71,443.11 C428.19,451.02 425.60,457.62 425.95,457.77 C426.31,457.91 430.85,457.64 436.05,457.15 C443.41,456.47 445.81,456.56 446.90,457.58 C448.11,458.69 448.08,459.22 446.73,461.28 C445.29,463.49 444.29,463.74 434.71,464.33 C428.96,464.68 423.46,465.27 422.48,465.65 C420.58,466.38 414.08,479.51 403.98,503.00 C400.55,510.98 396.06,521.10 394.01,525.50 C385.14,544.46 382.00,559.24 385.44,565.88 C391.07,576.77 406.47,568.37 420.24,546.90 C429.19,532.95 435.61,521.21 442.05,507.00 C449.41,490.76 457.66,473.07 458.83,471.00 C460.17,468.64 463.95,467.29 471.14,466.60 C476.59,466.08 477.88,466.24 478.36,467.51 C478.88,468.86 475.78,476.21 463.88,501.82 C460.00,510.15 449.58,535.43 447.93,540.50 C447.22,542.70 446.60,547.95 446.57,552.16 C446.51,558.88 446.79,560.14 448.84,562.33 C458.96,573.12 476.37,557.78 494.63,521.98 C497.86,515.65 501.68,507.77 503.13,504.48 C513.30,481.36 521.69,464.67 523.50,463.98 C526.47,462.84 538.31,461.21 539.75,461.75 C541.83,462.52 541.28,464.19 533.90,479.64 C521.27,506.09 511.18,530.15 508.38,540.50 C506.33,548.06 506.59,556.21 508.98,559.24 C511.66,562.66 514.09,563.09 518.79,560.98 C527.18,557.23 534.41,548.57 546.12,528.29 C549.50,522.43 553.38,515.13 554.73,512.07 C565.37,488.01 572.92,476.43 584.07,467.09 C591.38,460.97 600.30,456.38 606.78,455.41 C611.71,454.67 618.45,456.26 621.36,458.85 C623.84,461.06 627.00,467.39 627.00,470.16 C627.00,475.18 627.39,474.37 655.64,411.03 C661.40,398.12 666.54,387.28 667.08,386.95 C667.61,386.62 671.68,385.76 676.13,385.04 C682.59,383.99 684.37,383.98 684.99,384.98 C686.00,386.62 682.00,396.34 667.49,427.50 C665.44,431.90 660.94,442.02 657.49,450.00 C652.42,461.73 644.95,478.32 637.00,495.50 C633.49,503.08 623.53,527.31 622.40,531.00 C621.64,533.47 620.73,538.30 620.38,541.72 C619.50,550.18 621.24,553.00 627.37,553.00 C639.65,553.00 654.57,531.94 676.24,484.00 C677.61,480.98 681.34,472.80 684.53,465.82 L 690.34 453.15 L 696.50 452.07 C704.66,450.65 707.96,450.72 708.57,452.32 C708.85,453.04 703.28,466.65 696.19,482.57 C677.59,524.35 673.82,535.89 676.04,544.14 C679.16,555.74 693.45,549.67 705.38,531.70 C712.13,521.53 722.92,501.58 727.95,489.99 C743.29,454.63 774.39,434.76 792.63,448.67 C801.62,455.53 803.42,473.53 797.35,495.86 C796.73,498.16 796.83,498.20 801.10,497.49 C810.93,495.85 821.89,487.50 827.00,477.75 C829.55,472.90 832.49,471.50 833.67,474.58 C834.68,477.22 829.79,486.13 824.31,491.63 C818.19,497.77 809.18,502.37 799.94,504.07 L 793.38 505.28 L 791.20 510.89 C787.98,519.18 779.43,532.46 772.69,539.67 C762.21,550.88 746.32,556.57 735.51,553.00 C727.03,550.21 721.38,541.40 720.14,529.09 L 719.49 522.50 L 713.23 532.11 C703.19,547.53 692.72,556.25 682.58,557.64 C676.23,558.51 671.45,557.33 667.58,553.94 C663.58,550.43 661.52,545.65 660.54,537.64 L 659.83 531.78 L 655.24 538.64 C649.64,547.02 640.43,556.23 634.77,559.12 C632.45,560.30 627.82,561.49 624.45,561.76 C612.75,562.70 606.39,557.40 604.16,544.87 L 603.38 540.50 L 601.54 544.00 C598.33,550.09 586.98,561.06 581.22,563.64 C575.19,566.34 567.65,566.74 562.72,564.62 C555.93,561.71 550.11,552.60 549.93,544.62 C549.77,537.48 548.62,537.39 544.63,544.20 C539.31,553.31 528.44,564.42 521.85,567.49 C516.00,570.22 506.61,570.90 502.68,568.88 C495.74,565.31 492.00,557.68 492.00,547.08 L 492.00 541.52 L 487.33 548.51 C481.16,557.73 470.72,568.04 464.50,571.04 C457.33,574.49 447.55,574.93 441.65,572.07 C434.57,568.64 430.09,560.21 429.95,550.00 C429.89,546.11 429.72,545.76 428.69,547.39 C420.86,559.84 410.29,571.43 402.82,575.77 C397.51,578.85 385.35,579.89 380.48,577.67 Z M 582.40 555.06 C589.99,550.37 601.21,533.00 609.90,512.50 C618.28,492.72 619.22,489.59 619.76,479.87 C620.34,469.34 619.05,464.68 615.11,463.05 C610.43,461.11 607.00,462.79 599.00,470.91 C587.89,482.20 576.89,503.02 569.90,526.00 C567.59,533.59 566.76,545.88 568.21,551.02 C570.11,557.75 575.55,559.30 582.40,555.06 Z M 757.31 543.12 C761.52,541.45 770.54,532.46 775.52,524.97 C779.46,519.04 786.48,505.04 785.77,504.51 C785.62,504.39 782.66,502.80 779.18,500.97 C767.52,494.83 762.05,485.45 761.96,471.43 L 761.93 465.50 L 759.56 468.40 C751.15,478.69 740.79,502.87 738.30,518.03 C734.67,540.18 741.61,549.35 757.31,543.12 Z M 791.01 488.75 C794.87,474.45 794.05,460.41 789.04,455.05 C781.71,447.20 770.58,455.54 769.28,469.85 C768.36,480.02 773.24,490.12 781.50,495.16 C787.34,498.73 788.53,497.93 791.01,488.75 Z M 705.33 436.55 C701.50,434.87 700.00,432.33 700.00,427.52 C700.00,419.86 705.48,414.00 712.63,414.00 C719.48,414.00 722.94,418.80 721.69,426.53 C720.35,434.78 712.40,439.66 705.33,436.55 Z M 452.00 422.75 C452.00,422.05 451.10,419.79 450.00,417.74 L 448.00 414.00 L 461.75 414.00 C473.64,413.99 475.94,413.73 478.71,412.04 C482.87,409.50 485.39,404.42 487.40,394.50 C489.21,385.55 491.95,360.31 491.98,352.25 L 492.00 347.00 L 495.55 347.00 L 499.10 347.00 L 498.80 385.25 L 498.50 423.50 L 475.25 423.77 C456.86,423.98 452.00,423.77 452.00,422.75 Z M 239.14 639.99 C228.91,635.15 227.00,633.45 227.00,629.18 C227.01,627.16 228.56,619.24 230.45,611.59 C237.10,584.76 247.69,569.11 261.94,565.02 C265.29,564.06 265.28,564.23 261.65,569.22 C260.48,570.82 259.73,573.35 259.80,575.40 C259.88,577.32 258.66,581.68 257.09,585.18 C252.12,596.20 247.00,622.53 247.00,637.03 C247.00,640.32 246.66,643.00 246.25,643.00 C245.84,643.00 242.64,641.65 239.14,639.99 Z M 297.64 610.25 C296.84,605.30 292.59,592.06 290.46,587.84 C289.53,586.00 287.69,583.07 286.38,581.32 C283.49,577.45 283.46,576.96 286.03,574.20 C289.40,570.58 292.70,570.34 295.98,573.48 C298.82,576.21 301.00,576.19 301.00,573.44 C301.00,571.63 302.09,571.61 304.53,573.40 C306.21,574.62 306.48,576.40 306.79,588.15 L 307.14 601.50 L 303.38 607.75 C301.32,611.19 299.32,614.00 298.94,614.00 C298.57,614.00 297.98,612.31 297.64,610.25 Z" fill="url(#eg-logo-gold)"/>
</g>
</svg>