<svg viewBox="0 0 24 24" xmlns="http://www.w3.org/2000/svg" fill="currentColor" aria-hidden="true" focusable="false">
	<path d="M12 0C5.372 0 0 5.372 0 12s5.372 12 12 12 12-5.372 12-12S18.628 0 12 0zm5.505 17.299a.748.748 0 0 1-1.029.247c-2.818-1.721-6.363-2.11-10.535-1.155a.748.748 0 1 1-.334-1.458c4.567-1.045 8.499-.599 11.649 1.325a.748.748 0 0 1 .249 1.041zm1.468-3.267a.935.935 0 0 1-1.285.309c-3.227-1.985-8.146-2.562-11.964-1.401a.935.935 0 1 1-.545-1.789c4.236-1.289 9.56-.651 13.49 1.766a.935.935 0 0 1 .304 1.115zm.126-3.401c-3.872-2.3-10.258-2.511-13.956-1.377a1.121 1.121 0 1 1-.655-2.144c4.245-1.297 11.303-1.047 15.756 1.603a1.121 1.121 0 1 1-1.145 1.918z"/>
</svg>
